<svg width="142" height="143" viewBox="0 0 142 143" fill="none" xmlns="http://www.w3.org/2000/svg">
<path d="M121.359 140.571H20.6423C10.3525 140.571 2.00137 132.185 2.00137 121.853V20.7182C2.00137 10.3858 10.3525 2 20.6423 2H121.359C131.649 2 140 10.3858 140 20.7182V121.853C140 132.185 131.649 140.571 121.359 140.571Z" stroke="white" stroke-width="4" stroke-miterlimit="10" stroke-linecap="round" stroke-linejoin="round"/>
<path d="M71.0089 2V140.571" stroke="white" stroke-width="4" stroke-miterlimit="10" stroke-linecap="round" stroke-linejoin="round"/>
<path d="M139.998 71.2952H2" stroke="white" stroke-width="4" stroke-miterlimit="10" stroke-linecap="round" stroke-linejoin="round"/>
<path d="M105.494 124.342V89.1519" stroke="white" stroke-width="4" stroke-miterlimit="10" stroke-linecap="round" stroke-linejoin="round"/>
<path d="M123.017 106.748H87.9903" stroke="white" stroke-width="4" stroke-miterlimit="10" stroke-linecap="round" stroke-linejoin="round"/>
<path d="M36.5048 24.6483C39.0065 24.6483 41.0345 22.6119 41.0345 20.0998C41.0345 17.5877 39.0065 15.5513 36.5048 15.5513C34.0031 15.5513 31.975 17.5877 31.975 20.0998C31.975 22.6119 34.0031 24.6483 36.5048 24.6483Z" fill="white"/>
<path d="M36.5048 56.0948C39.0065 56.0948 41.0345 54.0584 41.0345 51.5463C41.0345 49.0342 39.0065 46.9978 36.5048 46.9978C34.0031 46.9978 31.975 49.0342 31.975 51.5463C31.975 54.0584 34.0031 56.0948 36.5048 56.0948Z" fill="white"/>
<path d="M54.0082 35.8237H18.982" stroke="white" stroke-width="4" stroke-miterlimit="10" stroke-linecap="round" stroke-linejoin="round"/>
<path d="M54.0082 106.747H18.982" stroke="white" stroke-width="4" stroke-miterlimit="10" stroke-linecap="round" stroke-linejoin="round"/>
<path d="M117.89 48.2525L93.1164 23.3948" stroke="white" stroke-width="4" stroke-miterlimit="10" stroke-linecap="round" stroke-linejoin="round"/>
<path d="M117.89 23.3948L93.1164 48.2525" stroke="white" stroke-width="4" stroke-miterlimit="10" stroke-linecap="round" stroke-linejoin="round"/>
</svg>
